<svg width="67" height="55" viewBox="0 0 67 55" fill="none" xmlns="http://www.w3.org/2000/svg">
<path fill-rule="evenodd" clip-rule="evenodd" d="M0.955245 11.1046C-0.166785 11.9019 -0.166783 13.568 0.955247 14.3653L16.0575 25.0967C17.3818 26.0377 19.216 25.0909 19.216 23.4664V18.3569H65.8265C66.3788 18.3569 66.8265 17.9092 66.8265 17.3569V8.11306C66.8265 7.56077 66.3788 7.11306 65.8265 7.11306H19.216V2.00351C19.216 0.379012 17.3817 -0.567775 16.0575 0.373199L0.955245 11.1046Z" fill="#002050"/>
<path fill-rule="evenodd" clip-rule="evenodd" d="M65.8712 43.1775C66.9933 42.3802 66.9933 40.7142 65.8712 39.9169L50.769 29.1855C49.4447 28.2445 47.6105 29.1913 47.6105 30.8158L47.6105 35.9253L1 35.9253C0.447717 35.9253 1.53959e-06 36.373 1.49131e-06 36.9253L6.83189e-07 46.1691C6.34907e-07 46.7214 0.447716 47.1691 1 47.1691L47.6105 47.1691L47.6105 52.2787C47.6105 53.9032 49.4447 54.85 50.769 53.909L65.8712 43.1775Z" fill="#F3785B"/>
</svg>
