<svg width="35" height="35" viewBox="0 0 36 27" fill="none" xmlns="http://www.w3.org/2000/svg">
<path d="M32.7127 26.0365H27.2625V13.0071L35.0485 7.25882V23.7372C35.0485 25.0075 34.0032 26.0365 32.7127 26.0365Z" fill="#34A853"/>
<path d="M8.57605 26.0365H3.12585C1.83532 26.0365 0.790048 25.0075 0.790048 23.7372V7.25882L8.57605 13.0071V26.0365Z" fill="#4285F4"/>
<path d="M8.57605 3.04342V13.0071L0.790048 7.25882V4.19308C0.790048 1.35152 4.08547 -0.271408 6.39597 1.43391L8.57605 3.04342Z" fill="#C5221F"/>
<path d="M27.2624 13.0071V3.04342L17.9192 9.94133L8.57602 3.04342V13.0071L17.9192 19.905L27.2624 13.0071Z" fill="#EA4335"/>
<path d="M35.0485 4.19308V7.25882L27.2625 13.0071V3.04342L29.4425 1.43391C31.753 -0.271408 35.0485 1.35152 35.0485 4.19308V4.19308Z" fill="#FBBC04"/>
</svg>
