<svg width="34" height="35" viewBox="0 0 34 35" fill="none" xmlns="http://www.w3.org/2000/svg">
<path d="M33.3392 22.7687C33.1284 22.2768 32.6365 21.9254 32.0743 21.7849C31.8635 20.8713 31.5824 20.4497 31.5824 20.3794C31.6527 20.2389 31.7932 20.1686 31.7932 20.0983C32.6365 19.1145 32.0743 17.6387 30.6688 17.2874C29.8958 16.5143 29.1931 16.163 28.5606 15.8819C27.9984 15.6008 28.2092 15.7413 27.7173 15.4602C27.5768 14.7575 27.5065 13.2115 27.2957 12.0871C27.0849 11.1033 26.6632 10.3302 26.101 9.90861C25.8199 9.34642 25.5388 8.8545 25.1172 8.43286C27.0849 5.48136 27.5768 2.52986 26.1713 0.983833C25.5388 0.281095 24.6253 0 23.5009 0C21.8846 0 19.9872 0.632464 18.0195 1.82712C18.0195 1.82712 16.7546 0.773012 16.6843 0.773012C11.203 -3.51369 -4.32752 15.5305 1.15384 19.6767L2.55931 20.7308C1.64575 23.1904 2.91068 26.1419 5.51081 27.0554C6.073 27.2662 6.70547 27.3365 7.33793 27.3365C7.33793 27.3365 11.4841 34.9261 20.2683 34.9261C30.3877 34.9261 32.9879 25.0175 32.9879 24.9472C32.9176 25.0175 33.7609 23.7525 33.3392 22.7687ZM1.50521 18.4117C0.451098 16.5143 2.34849 12.7196 3.75397 10.4708C7.12711 5.05971 12.8193 0.773012 15.4194 1.40548L16.1222 1.12438C16.1222 1.12438 18.0195 2.74068 18.0898 2.74068C19.425 1.96767 21.1116 1.12438 22.6576 0.983833C21.6738 1.19465 20.5494 1.68657 19.1439 2.52986C19.1439 2.52986 15.8411 4.77862 13.8734 6.74628C12.8193 7.80039 8.46231 13.0709 8.46231 13.0007C9.23532 11.5249 9.79751 10.7519 11.0624 9.20587C11.7652 8.29231 12.5382 7.44902 13.3112 6.60574C13.6626 6.25437 14.0139 5.903 14.4356 5.55163C14.7167 5.34081 14.9275 5.05971 15.2086 4.84889C15.3491 4.77862 15.4194 4.63807 15.56 4.5678L13.0301 2.45958L13.1707 3.37314L14.9978 4.98944C14.9978 4.98944 13.3815 6.11382 12.5382 6.81656C9.23532 9.62751 6.073 13.9142 4.87835 18.0604H4.94862C4.38643 18.4117 3.75397 18.9037 3.26205 19.6064C3.05123 19.6767 1.71603 18.7631 1.50521 18.4117ZM6.91629 26.2121C4.94862 26.2121 3.4026 24.5256 3.4026 22.4876C3.4026 20.4497 5.01889 18.7631 6.91629 18.7631C7.4082 18.7631 7.90012 18.9037 8.32176 19.0442C8.32176 19.0442 9.09477 19.3956 9.3056 21.2227C9.51642 20.6605 9.65696 20.1686 9.65696 20.1686C9.93806 20.9416 10.0083 21.7849 10.0083 22.5579C10.2192 22.2768 10.43 21.7849 10.43 21.7849C10.8516 24.1742 9.16505 26.2121 6.91629 26.2121ZM11.2733 13.0709C11.2733 13.0709 12.8193 10.1897 16.1222 8.22203C15.8411 8.15176 15.2789 8.29231 15.1383 8.29231C15.7708 7.80039 16.8952 7.44902 17.6682 7.2382C17.4574 7.09765 16.8952 7.02738 16.6141 7.02738C16.5438 7.02738 16.5438 7.02738 16.4735 7.02738C17.1763 6.60574 18.5817 6.39492 19.7764 6.60574C19.6358 6.39492 19.2845 6.25437 19.0034 6.18409H18.8628H18.9331C19.7061 6.04355 20.5494 6.18409 21.2521 6.46519C21.1819 6.25437 20.971 6.04355 20.8305 5.903L20.7602 5.83272C21.463 5.97327 22.1657 6.32464 22.7279 6.67601C22.6576 6.53546 22.5171 6.32464 22.3765 6.18409C23.0793 6.39492 23.8523 6.88683 24.2036 7.58957V7.65984C22.8684 6.67601 19.0737 6.95711 15.2789 9.41669C13.5923 10.5411 12.2571 11.7357 11.2733 13.0709ZM31.9338 24.5256C31.8635 24.5958 31.4418 27.196 28.6309 29.3744C25.1875 32.1151 20.6197 31.834 18.8628 30.288C17.9493 29.4447 17.5276 28.1798 17.5276 28.1798C17.5276 28.1798 17.4574 28.8825 17.3871 29.1636C16.6843 27.969 16.7546 26.5635 16.7546 26.5635C16.7546 26.5635 16.4032 27.2662 16.1924 27.6176C15.7005 26.2824 15.9113 24.9472 15.9113 24.9472L15.4897 25.5797C15.4897 25.5797 15.2789 24.1039 15.7708 22.9093C16.2627 21.5741 17.2465 20.6605 17.4574 20.5199C16.7546 20.3091 15.9113 19.6064 15.9113 19.6064C15.9113 19.6064 16.2627 19.6064 16.4735 19.6064C16.4735 19.6064 14.9978 18.5523 14.7167 16.936C14.9275 17.2171 15.3491 17.4982 15.3491 17.4982C15.2086 17.0765 15.1383 16.163 15.2789 15.1791C15.56 13.4223 17.0357 12.2276 18.652 12.2276C20.4089 12.2276 21.6035 12.579 23.0793 11.2438C23.3604 10.9627 23.6415 10.6816 24.0631 10.6113C24.1334 10.6113 24.2036 10.5411 24.4847 10.5411C24.6956 10.5411 24.9767 10.6113 25.1875 10.7519C25.9605 11.2438 26.1713 12.5087 26.2416 13.4223C26.5929 16.7954 26.4524 16.2332 27.7876 16.936C28.4201 17.2874 29.1931 17.5685 30.0364 18.482C30.7391 18.482 31.0905 19.0442 30.8094 19.4658C28.4201 22.2768 25.1172 23.612 21.463 23.7525C21.3224 23.7525 20.971 23.7525 20.971 23.7525C19.4953 23.8228 19.0034 25.7202 19.9169 26.8446C20.4791 27.5473 21.6738 27.8284 22.5873 27.8284C26.5929 27.8987 30.6688 25.0877 31.3716 23.4714L31.4418 23.3309C31.3013 23.5417 27.366 27.196 22.5873 27.0554C22.5873 27.0554 22.0954 27.0554 21.6035 26.9149C20.971 26.7743 20.4791 26.4932 20.2683 25.8608C20.69 25.931 21.1819 26.0013 21.7441 26.0013C25.1875 26.0013 27.6471 24.4553 27.4362 24.385C27.4362 24.385 27.4362 24.385 27.366 24.385C26.9443 24.4553 22.7982 26.0716 20.198 25.2283C20.198 25.158 20.198 25.0877 20.2683 25.0175C20.4791 24.2445 20.9008 24.3147 21.6035 24.3147C23.9928 24.2445 25.8902 23.612 27.366 22.9795C28.912 22.2768 30.1066 21.293 30.5283 20.801C31.0905 21.7146 31.0905 22.9093 31.0905 22.9093C31.0905 22.9093 31.3013 22.839 31.5824 22.839C32.4257 22.9093 32.5662 23.6823 31.9338 24.5256Z" fill="black"/>
<path d="M15.2789 2.67041L15.7708 2.81096L15.3491 1.40548L15.1383 2.10822L15.2789 2.67041Z" fill="black"/>
<path d="M17.3871 3.16232L16.6141 2.52985L16.8952 3.51369C17.0357 3.37314 17.1763 3.30287 17.3871 3.16232Z" fill="black"/>
<path d="M24.4847 15.7413C24.9064 15.7413 25.2578 15.8116 25.6091 15.9522C25.6091 14.9683 25.0469 13.9142 24.6253 14.0548C24.3442 14.125 24.3442 14.5467 24.3442 14.8278C24.3442 15.1791 24.3442 15.4602 24.4847 15.7413Z" fill="black"/>
<path d="M16.5438 3.72451L14.9275 3.2326L15.9816 4.14616C16.1924 4.00561 16.333 3.86506 16.5438 3.72451Z" fill="black"/>
<path d="M20.6899 17.1468C21.0413 17.2874 21.2521 17.3576 21.2521 17.2874C21.2521 17.2874 21.2521 17.1468 21.1819 17.0765C20.971 16.7954 20.6197 16.5143 20.2683 16.4441C19.4953 16.163 18.5817 16.3035 17.9493 16.8657C17.5979 17.1468 17.4574 17.4279 17.5979 17.4279C17.6682 17.4279 17.879 17.3576 18.1601 17.2874C19.2845 16.7954 19.8467 16.7954 20.6899 17.1468Z" fill="black"/>
<path d="M20.7602 18.0604C20.9711 18.0604 21.1116 18.0604 21.1116 18.0604C21.1819 17.9198 20.69 17.5684 19.9169 17.6387C19.8467 17.6387 19.7764 17.709 19.6358 17.709H19.5656C19.425 17.7793 19.2142 17.8495 19.0737 17.9901C18.9331 18.1306 18.8628 18.2712 18.9331 18.3415C19.0034 18.4117 19.0737 18.3415 19.2845 18.2712C19.9169 18.0604 20.3386 18.0604 20.7602 18.0604Z" fill="black"/>
<path d="M8.18122 21.2227C8.39204 21.5038 8.32177 21.6443 8.39204 21.7146C8.39204 21.7146 8.46232 21.7849 8.53259 21.7146C8.67314 21.6443 8.67314 21.5038 8.67314 21.3632C8.67314 21.0821 8.53259 20.7308 8.32177 20.5199C8.04068 20.2389 7.68931 19.9578 7.19739 19.8875C6.77575 19.8172 6.3541 19.8875 6.28383 19.9578C6.21356 19.9578 6.14328 19.9578 6.07301 20.028C4.94863 20.4497 4.45671 21.5741 4.66753 22.6282C4.73781 22.9093 4.87835 23.1903 5.0189 23.4012C5.22972 23.6823 5.51082 23.612 5.37027 23.4012C5.37027 23.3309 5.22972 23.0498 5.15945 22.6282C5.15945 22.1362 5.22972 21.6443 5.58109 21.2227C5.79191 20.9416 6.07301 20.801 6.14328 20.801C6.21356 20.801 6.21356 20.7308 6.28383 20.7308H6.3541C6.49465 20.6605 6.42438 20.7308 6.56493 20.6605C7.40821 20.5199 7.9704 20.8713 8.18122 21.2227Z" fill="black"/>
<path d="M7.82985 22.066C7.75958 21.9957 7.6893 21.9254 7.6893 21.8552C7.6893 21.7146 7.6893 21.6443 7.82985 21.5741C7.90012 21.5038 7.9704 21.5038 7.9704 21.4335C7.9704 21.3632 7.6893 21.293 7.40821 21.5038C7.19739 21.7146 7.19739 22.1362 7.47848 22.4173C7.82985 22.7687 8.32177 22.839 8.39204 23.2606C8.39204 23.3309 8.39204 23.4012 8.39204 23.4714C8.39204 23.5417 8.39204 23.6823 8.39204 23.6823C8.32177 24.1039 7.90012 24.5256 7.19739 24.385C7.05684 24.385 6.98656 24.385 6.98656 24.385C6.91629 24.4553 7.19739 24.8066 7.75958 24.7364C8.53259 24.7364 9.09478 23.9634 8.95423 23.1201C8.88396 22.4173 8.11095 22.2768 7.82985 22.066Z" fill="black"/>
<path d="M25.9208 17.3615C25.9627 17.093 25.8412 16.8511 25.6494 16.8212C25.4577 16.7913 25.2683 16.9847 25.2264 17.2532C25.1846 17.5216 25.3061 17.7635 25.4978 17.7934C25.6896 17.8233 25.879 17.6299 25.9208 17.3615Z" fill="black"/>
<path d="M24.4131 23.1327C24.525 22.9285 24.395 22.642 24.1227 22.4928C23.8504 22.3435 23.5389 22.3881 23.427 22.5923C23.3151 22.7966 23.4451 23.0831 23.7174 23.2323C23.9897 23.3815 24.3012 23.3369 24.4131 23.1327Z" fill="black"/>
</svg>
