<svg width="132" height="133" viewBox="0 0 132 133" fill="none" xmlns="http://www.w3.org/2000/svg">
<ellipse cx="66" cy="66.5" rx="66" ry="66.5" fill="white"/>
<path fill-rule="evenodd" clip-rule="evenodd" d="M33.2781 50.6452C32.1561 51.4425 32.1561 53.1086 33.2781 53.9059L48.3804 64.6373C49.7046 65.5783 51.5389 64.6315 51.5389 63.007V57.8975H98.1494C98.7017 57.8975 99.1494 57.4497 99.1494 56.8975V47.6536C99.1494 47.1014 98.7017 46.6536 98.1494 46.6536H51.5389V41.5441C51.5389 39.9196 49.7046 38.9728 48.3804 39.9138L33.2781 50.6452Z" fill="#002050"/>
<path fill-rule="evenodd" clip-rule="evenodd" d="M98.1941 82.7181C99.3162 81.9208 99.3162 80.2548 98.1941 79.4575L83.0918 68.7261C81.7676 67.7851 79.9334 68.7319 79.9334 70.3564L79.9334 75.4659L33.3229 75.4659C32.7706 75.4659 32.3229 75.9136 32.3229 76.4659L32.3229 85.7097C32.3229 86.262 32.7706 86.7097 33.3229 86.7097L79.9334 86.7097L79.9334 91.8193C79.9334 93.4438 81.7676 94.3906 83.0918 93.4496L98.1941 82.7181Z" fill="#F3785B"/>
</svg>
